<svg width="22" height="23" viewBox="0 0 22 23" fill="none" xmlns="http://www.w3.org/2000/svg">
<path d="M12.7339 0.913366C12.2691 0.852137 11.7976 0.821289 11.3316 0.821289C6.00732 0.821289 1.46746 4.79533 0.771834 10.0655C0.39988 12.8808 1.14988 15.6717 2.88356 17.9247C4.61701 20.1776 7.1267 21.6223 9.95023 21.9932C10.4145 22.0542 10.8861 22.0848 11.3518 22.0848C16.6761 22.0848 21.2162 18.1108 21.9121 12.8404C22.6796 7.02926 18.5621 1.67896 12.7339 0.913366ZM17.2651 12.2307C16.8751 15.1839 14.3331 17.4108 11.3523 17.4108C11.0905 17.4108 10.8244 17.3933 10.5624 17.359C8.98038 17.151 7.57412 16.3414 6.60263 15.0792C5.63115 13.817 5.21091 12.2531 5.41927 10.6754C5.80928 7.7224 8.35108 5.49549 11.3316 5.49549C11.5937 5.49549 11.8597 5.51279 12.122 5.54737C15.3875 5.97621 17.6947 8.97433 17.2651 12.2307Z" fill="#FF9F0D"/>
</svg>
