<svg width="22" height="23" viewBox="0 0 22 23" fill="none" xmlns="http://www.w3.org/2000/svg">
<path d="M12.3436 0.844396C11.8791 0.783167 11.4073 0.752319 10.9414 0.752319C5.61705 0.752319 1.07719 4.72636 0.38156 9.99626C-0.385786 15.8079 3.7315 21.1586 9.55995 21.9238C10.0245 21.985 10.4963 22.0158 10.9622 22.0158C16.2863 22.0158 20.8262 18.0418 21.522 12.7714C22.2891 6.96005 18.1719 1.60952 12.3436 0.844396ZM16.8748 12.1615C16.4848 15.1147 13.943 17.3416 10.9622 17.3416C10.7002 17.3416 10.4342 17.3243 10.1719 17.2898C6.90588 16.8609 4.59915 13.8628 5.029 10.6062C5.419 7.6532 7.96058 5.42652 10.9414 5.42652C11.2034 5.42652 11.4694 5.44381 11.7317 5.4784C14.9975 5.90747 17.3047 8.90536 16.8748 12.1615Z" fill="#FF9F0D"/>
</svg>
