<svg width="78" height="72" viewBox="0 0 78 72" fill="none" xmlns="http://www.w3.org/2000/svg">
<rect y="0.430786" width="77.234" height="70.7861" rx="3" fill="#FF9F0D"/>
<path d="M38.6168 28.4502V35.8238" stroke="white" stroke-width="1.5" stroke-linecap="round" stroke-linejoin="round"/>
<path d="M45.0482 39.5105L38.6168 35.8237" stroke="white" stroke-width="1.5" stroke-linecap="round" stroke-linejoin="round"/>
<path d="M47.3066 31.4789H53.4953V25.3342" stroke="white" stroke-width="1.5" stroke-linecap="round" stroke-linejoin="round"/>
<path d="M48.244 45.3826C46.3399 47.2731 43.9139 48.5606 41.2729 49.0822C38.6318 49.6038 35.8943 49.3361 33.4065 48.3129C30.9187 47.2898 28.7923 45.5571 27.2963 43.3341C25.8003 41.111 25.0018 38.4974 25.0018 35.8237C25.0018 33.1501 25.8003 30.5365 27.2963 28.3134C28.7923 26.0904 30.9187 24.3577 33.4065 23.3346C35.8943 22.3114 38.6318 22.0437 41.2729 22.5653C43.9139 23.0869 46.3399 24.3744 48.244 26.2649L53.4952 31.4788" stroke="white" stroke-width="1.5" stroke-linecap="round" stroke-linejoin="round"/>
</svg>
